<?xml version="1.0" standalone="no"?>
<!DOCTYPE svg PUBLIC "-//W3C//DTD SVG 20010904//EN"
 "http://www.w3.org/TR/2001/REC-SVG-20010904/DTD/svg10.dtd">
<svg version="1.0" xmlns="http://www.w3.org/2000/svg"
 width="791.000000pt" height="198.000000pt" viewBox="0 0 791.000000 198.000000"
 preserveAspectRatio="xMidYMid meet">

<g transform="translate(0.000000,198.000000) scale(0.100000,-0.100000)"
fill="#000000" stroke="none">
<path d="M420 1973 c-120 -20 -226 -85 -303 -185 -78 -103 -116 -237 -117
-410 0 -186 48 -326 150 -432 105 -109 210 -151 380 -149 166 1 278 47 377
157 120 133 171 377 125 598 -28 133 -70 214 -149 288 -75 71 -141 106 -232
126 -62 13 -175 16 -231 7z m236 -221 c56 -29 119 -103 141 -165 26 -76 26
-321 -1 -393 -29 -77 -75 -135 -137 -169 -47 -26 -64 -30 -134 -30 -70 0 -87
4 -133 29 -116 65 -166 177 -165 372 0 201 73 329 213 375 46 15 171 4 216
-19z"/>
<path d="M3140 1385 l0 -575 100 0 100 0 0 443 c0 246 4 435 9 427 5 -8 25
-85 45 -170 20 -85 65 -276 100 -425 l64 -270 104 -3 104 -3 98 415 c54 229
101 428 106 443 5 16 9 -160 9 -414 l1 -443 100 0 100 0 0 575 0 575 -163 0
-162 0 -28 -112 c-141 -582 -161 -660 -169 -642 -4 10 -46 177 -93 369 -48
193 -88 358 -91 368 -5 15 -22 17 -170 17 l-164 0 0 -575z"/>
<path d="M5240 1860 l0 -100 100 0 100 0 0 100 0 100 -100 0 -100 0 0 -100z"/>
<path d="M6170 1754 l0 -206 -46 40 c-143 127 -361 80 -457 -97 -73 -133 -73
-371 -2 -517 30 -62 99 -128 163 -157 99 -45 228 -18 308 64 l39 40 5 -53 5
-53 95 0 95 0 0 570 0 570 -102 3 -103 3 0 -207z m-90 -286 c19 -13 45 -45 59
-73 24 -45 26 -60 26 -165 0 -101 -3 -121 -24 -163 -31 -64 -86 -100 -146 -99
-64 0 -108 31 -141 99 -24 49 -27 67 -28 162 -1 96 1 111 26 161 36 72 77 100
144 100 36 0 61 -6 84 -22z"/>
<path d="M2435 1646 c-30 -14 -68 -50 -98 -96 -17 -24 -17 -24 -17 33 l0 57
-95 0 -95 0 0 -415 0 -415 100 0 100 0 1 128 c1 243 14 406 38 455 33 69 98
90 169 55 38 -19 32 -28 73 100 26 82 25 83 -41 102 -48 13 -99 12 -135 -4z"/>
<path d="M4575 1645 c-27 -8 -53 -14 -58 -15 -4 0 -28 -19 -54 -42 -41 -38
-93 -124 -93 -154 0 -6 39 -19 89 -28 108 -19 101 -19 101 0 0 9 15 31 34 50
32 32 37 34 106 34 66 0 74 -2 101 -29 22 -23 29 -39 29 -69 0 -47 -6 -51
-145 -81 -209 -47 -273 -80 -314 -164 -31 -64 -29 -157 5 -225 74 -148 281
-173 434 -52 l37 30 13 -45 13 -45 99 0 c99 0 100 0 94 23 -30 101 -36 165
-36 392 0 136 -5 256 -11 278 -14 53 -60 101 -121 127 -68 29 -246 38 -323 15z
m254 -514 c-4 -88 -19 -118 -79 -158 -39 -27 -114 -31 -148 -7 -28 19 -52 65
-52 98 0 51 46 84 160 115 58 16 109 29 114 30 4 0 6 -35 5 -78z"/>
<path d="M6741 1649 c-164 -32 -254 -205 -181 -349 40 -79 96 -110 293 -164
145 -40 163 -48 172 -77 27 -83 -120 -140 -231 -90 -31 14 -47 30 -64 65 -16
33 -27 45 -39 42 -9 -2 -53 -10 -98 -16 -48 -7 -83 -17 -83 -24 0 -30 51 -115
90 -150 85 -76 219 -109 358 -88 177 28 274 124 275 272 1 139 -69 203 -283
259 -156 41 -206 60 -217 84 -25 54 24 87 131 87 74 0 104 -14 134 -61 l23
-36 92 19 c50 10 92 20 94 22 2 2 -11 31 -29 66 -39 75 -88 113 -173 135 -63
16 -192 18 -264 4z"/>
<path d="M1210 1373 c1 -381 13 -450 94 -520 46 -41 97 -57 177 -57 81 0 159
35 213 94 l35 39 3 -57 3 -57 93 -3 92 -3 0 416 0 415 -100 0 -100 0 -1 -242
c0 -134 -4 -265 -8 -291 -14 -83 -69 -137 -148 -144 -39 -4 -55 0 -83 19 -53
36 -58 72 -59 386 l-1 272 -105 0 -105 0 0 -267z"/>
<path d="M5240 1225 l0 -415 100 0 100 0 0 415 0 415 -100 0 -100 0 0 -415z"/>
<path d="M7635 787 c-130 -73 -139 -301 -17 -394 97 -74 227 -23 271 106 28
86 0 213 -60 268 -53 48 -130 56 -194 20z m142 -16 c63 -29 98 -95 98 -186 0
-58 -5 -78 -27 -116 -49 -83 -124 -109 -195 -70 -116 65 -133 253 -31 348 48
45 92 52 155 24z"/>
<path d="M7640 585 c0 -104 2 -125 15 -125 11 0 15 12 15 50 0 43 3 50 20 50
14 0 27 -15 45 -50 18 -35 31 -50 45 -50 11 0 20 2 20 5 0 12 -45 95 -52 95
-4 0 4 11 17 25 31 30 33 77 5 105 -15 15 -33 20 -75 20 l-55 0 0 -125z m94
79 c26 -10 20 -53 -9 -60 -14 -3 -32 -4 -40 0 -15 5 -21 47 -8 59 8 9 36 9 57
1z"/>
<path d="M30 530 l0 -70 3730 0 3730 0 0 70 0 70 -3730 0 -3730 0 0 -70z"/>
<path d="M3814 330 c-12 -5 -26 -22 -32 -39 -8 -21 -18 -31 -31 -31 -12 0 -21
-7 -21 -15 0 -8 7 -15 15 -15 19 0 19 -2 -5 -80 -11 -36 -20 -66 -20 -67 0 -2
15 -3 33 -3 34 0 34 1 54 73 17 65 22 72 46 75 32 4 37 32 6 32 -36 0 -19 34
19 38 41 4 42 28 1 36 -37 7 -38 7 -65 -4z"/>
<path d="M217 208 l-95 -123 32 -3 c25 -3 36 3 57 27 24 29 30 31 92 31 64 0
66 -1 69 -27 3 -24 8 -29 37 -31 39 -4 39 -16 0 156 l-21 92 -39 0 c-37 0 -41
-4 -132 -122z m136 5 l7 -33 -45 0 c-25 0 -45 3 -45 6 0 3 14 24 32 46 34 43
40 40 51 -19z"/>
<path d="M651 263 c-11 -38 -25 -87 -31 -111 -6 -24 -14 -50 -17 -58 -4 -10 3
-14 29 -14 33 0 35 2 47 50 17 66 45 100 82 100 34 0 36 -11 14 -84 -20 -66
-20 -68 17 -64 30 3 33 6 52 77 l20 74 -24 19 c-24 20 -46 20 -108 2 -21 -6
-22 -5 -12 20 17 45 13 56 -20 56 -27 0 -30 -4 -49 -67z"/>
<path d="M1215 318 c-9 -27 -65 -229 -65 -234 0 -3 14 -4 32 -2 31 3 33 5 60
98 45 156 45 150 8 150 -17 0 -33 -6 -35 -12z"/>
<path d="M1637 323 c-19 -18 -6 -34 25 -31 44 4 53 38 10 38 -16 0 -32 -3 -35
-7z"/>
<path d="M2447 228 c-15 -57 -30 -113 -34 -126 -5 -22 -3 -23 28 -20 32 3 35
7 49 56 l15 52 66 0 67 0 -14 -47 c-19 -63 -19 -65 18 -61 32 3 33 4 65 113
18 61 33 116 33 123 0 9 -11 12 -32 10 -29 -3 -34 -8 -46 -50 l-13 -48 -66 0
c-63 0 -65 1 -59 23 21 75 21 77 -16 77 l-34 0 -27 -102z"/>
<path d="M3527 323 c-4 -3 -7 -12 -7 -19 0 -7 -4 -24 -10 -38 -9 -24 -11 -25
-37 -11 -15 8 -36 15 -46 15 -32 0 -85 -28 -102 -54 -25 -37 -22 -96 5 -118
25 -20 81 -24 111 -8 13 7 19 7 19 0 0 -5 13 -10 30 -10 28 0 30 3 55 88 15
48 30 100 36 116 5 16 9 33 9 37 0 11 -54 12 -63 2z m-58 -107 c19 -23 9 -67
-21 -89 -23 -17 -31 -19 -53 -9 -50 23 -19 112 39 112 13 0 29 -6 35 -14z"/>
<path d="M4512 217 c-18 -63 -32 -120 -32 -127 0 -20 229 -9 264 13 36 24 44
63 18 89 l-21 21 25 19 c31 25 31 51 -2 77 -23 18 -41 21 -124 21 l-97 0 -31
-113z m205 57 c9 -25 -24 -44 -79 -44 -49 0 -56 7 -42 44 9 23 112 23 121 0z
m-26 -94 c50 -28 4 -60 -86 -60 l-53 0 11 35 c10 34 12 35 59 35 27 0 58 -5
69 -10z"/>
<path d="M5827 323 c-6 -10 -67 -226 -67 -236 0 -4 15 -7 34 -7 33 0 35 2 46
50 l12 50 63 0 c80 0 122 15 140 51 21 40 19 55 -11 78 -23 18 -41 21 -120 21
-51 0 -95 -3 -97 -7z m170 -50 c10 -26 -32 -53 -84 -53 -42 0 -45 2 -39 23 3
12 6 28 6 35 0 20 109 16 117 -5z"/>
<path d="M6975 318 c-9 -27 -65 -229 -65 -234 0 -3 14 -4 32 -2 31 3 33 5 60
98 45 156 45 150 8 150 -17 0 -33 -6 -35 -12z"/>
<path d="M973 259 c-72 -22 -99 -117 -45 -159 22 -18 37 -21 84 -18 38 3 64
11 79 24 l21 19 -24 5 c-12 4 -35 -1 -49 -9 -22 -12 -32 -13 -53 -3 -14 6 -26
18 -26 27 0 12 16 15 85 15 83 0 85 0 85 24 0 61 -79 99 -157 75z m85 -41 c22
-22 13 -28 -38 -28 -27 0 -50 4 -50 8 0 16 25 32 50 32 14 0 31 -5 38 -12z"/>
<path d="M1437 263 c-4 -3 -31 -7 -59 -7 l-53 -1 -32 -115 c-18 -63 -33 -119
-33 -123 0 -5 15 -7 32 -5 28 3 34 8 44 43 8 26 16 38 25 36 8 -3 35 -7 61 -9
41 -3 50 0 83 30 49 44 53 98 11 134 -26 23 -65 31 -79 17z m41 -56 c11 -57
-39 -109 -83 -89 -30 14 -34 55 -9 90 20 29 87 28 92 -1z"/>
<path d="M1843 255 c-18 -8 -33 -10 -33 -5 0 6 -13 10 -30 10 -31 0 -27 9 -77
-163 -4 -16 0 -18 28 -15 29 3 34 8 51 57 22 68 43 91 80 91 33 0 35 -12 13
-84 -20 -66 -20 -68 17 -64 30 3 33 6 52 77 l20 74 -23 18 c-27 22 -54 23 -98
4z"/>
<path d="M2064 256 c-42 -18 -64 -52 -64 -98 0 -60 50 -91 116 -70 39 12 44 2
14 -28 -24 -24 -49 -25 -76 -5 -22 16 -74 20 -74 5 0 -6 9 -19 20 -30 16 -16
33 -20 80 -20 64 0 100 12 117 39 6 9 20 53 32 97 12 43 24 87 27 97 4 13 -1
17 -25 17 -16 0 -33 -4 -36 -10 -4 -6 -17 -4 -35 5 -35 18 -55 18 -96 1z m90
-32 c21 -8 21 -53 0 -82 -18 -26 -65 -30 -84 -7 -14 17 -7 57 16 79 16 17 41
20 68 10z"/>
<path d="M2834 259 c-17 -5 -37 -16 -44 -24 -10 -12 -7 -15 15 -21 15 -4 31
-2 38 5 6 6 24 11 40 11 22 0 28 -4 25 -17 -2 -14 -16 -19 -58 -23 -30 -3 -65
-11 -77 -18 -27 -15 -30 -53 -7 -76 18 -18 76 -21 105 -6 13 7 19 7 19 0 0 -5
16 -10 35 -10 25 0 33 4 29 14 -3 7 2 38 11 68 19 65 14 83 -27 97 -36 13 -61
13 -104 0z m57 -117 c-13 -24 -41 -35 -65 -26 -23 9 -20 33 7 38 71 16 73 15
58 -12z"/>
<path d="M3153 255 c-20 -8 -33 -10 -33 -4 0 6 -14 9 -31 7 -30 -3 -32 -7 -55
-83 -13 -44 -23 -84 -24 -88 0 -5 15 -7 32 -5 30 3 34 7 46 53 17 62 46 95 84
95 33 0 36 -16 13 -80 -21 -61 -20 -70 15 -70 27 0 30 4 50 69 25 85 25 86 -2
105 -27 19 -53 20 -95 1z"/>
<path d="M3964 260 c-39 -12 -72 -48 -80 -88 -5 -26 -1 -36 24 -62 26 -26 38
-30 82 -30 84 0 140 42 140 105 0 43 -35 74 -91 80 -24 2 -58 0 -75 -5z m99
-51 c27 -44 -46 -114 -92 -89 -28 14 -28 63 0 91 24 24 76 23 92 -2z"/>
<path d="M4296 255 c-33 -18 -39 -19 -31 -5 4 6 -7 10 -27 10 -33 0 -33 0 -56
-82 -12 -46 -22 -86 -22 -90 0 -5 13 -8 29 -8 27 0 31 5 47 55 20 63 37 82 77
87 29 4 50 25 41 40 -8 12 -26 10 -58 -7z"/>
<path d="M5170 253 c-38 -20 -50 -52 -26 -72 9 -7 37 -18 62 -25 55 -14 67
-32 28 -42 -18 -5 -38 -1 -59 11 -32 17 -75 14 -75 -5 0 -18 60 -40 110 -40
65 0 110 22 110 54 0 30 -19 45 -75 60 -26 6 -47 16 -48 21 -3 14 61 19 77 6
7 -6 24 -7 40 -3 l28 8 -21 18 c-30 27 -107 32 -151 9z"/>
<path d="M6154 256 c-39 -17 -74 -61 -74 -93 0 -14 13 -37 29 -54 24 -24 38
-29 78 -29 32 0 60 7 83 22 l35 21 -30 8 c-21 6 -34 4 -45 -6 -22 -19 -55 -19
-74 1 -29 28 -17 34 69 34 85 0 85 0 85 26 0 38 -16 61 -51 73 -41 14 -67 13
-105 -3z m94 -48 c3 -15 -4 -18 -47 -18 -28 0 -51 2 -51 4 0 3 7 12 16 21 22
21 78 16 82 -7z"/>
<path d="M6424 260 c-39 -12 -70 -47 -79 -87 -6 -28 -2 -37 25 -64 29 -30 34
-31 95 -27 54 3 69 9 94 32 16 16 32 39 35 51 8 31 -8 71 -33 85 -29 15 -101
21 -137 10z m94 -42 c34 -34 -5 -101 -57 -101 -53 0 -67 41 -30 87 22 28 66
35 87 14z"/>
<path d="M6777 263 c-4 -3 -30 -7 -58 -7 l-52 -1 -33 -120 c-19 -66 -34 -121
-34 -123 0 -2 14 -2 32 0 27 3 33 9 46 45 12 37 16 41 32 33 27 -15 87 -12
119 5 37 18 64 76 56 116 -9 40 -84 77 -108 52z m41 -56 c11 -57 -39 -109 -83
-89 -32 15 -34 63 -4 93 26 26 82 23 87 -4z"/>
<path d="M7120 254 c-59 -25 -84 -76 -64 -129 18 -46 125 -60 184 -23 l35 21
-29 8 c-20 6 -35 4 -50 -6 -27 -19 -51 -19 -70 1 -29 28 -17 34 69 34 85 0 85
0 85 26 0 38 -16 61 -51 73 -42 14 -67 13 -109 -5z m98 -46 c3 -15 -4 -18 -48
-18 -48 0 -50 1 -40 21 15 26 83 24 88 -3z"/>
<path d="M1615 248 c-11 -34 -45 -156 -45 -162 0 -4 15 -6 32 -4 31 3 33 6 54
78 29 99 29 100 -6 100 -17 0 -32 -6 -35 -12z"/>
<path d="M4859 233 c-44 -116 -37 -148 32 -147 24 0 53 4 63 9 14 6 17 5 12
-3 -5 -8 2 -12 23 -12 36 0 33 -5 64 98 l25 82 -33 0 c-32 0 -34 -2 -50 -55
-21 -74 -63 -113 -92 -84 -8 8 -5 28 8 72 10 34 19 63 19 65 0 1 -14 2 -30 2
-24 0 -33 -6 -41 -27z"/>
<path d="M5390 248 c0 -7 9 -48 19 -91 21 -87 14 -107 -35 -107 -17 0 -24 -5
-24 -20 0 -16 7 -20 36 -20 19 0 44 5 54 10 15 8 155 182 184 228 5 8 -3 12
-27 12 -30 0 -38 -7 -80 -67 -26 -37 -47 -60 -47 -51 0 9 -5 40 -11 68 -10 46
-13 50 -40 50 -17 0 -29 -5 -29 -12z"/>
</g>
</svg>
