<?xml version="1.0" encoding="UTF-8"?>
<svg id="Layer_2" data-name="Layer 2" xmlns="http://www.w3.org/2000/svg" viewBox="0 0 345.34 260.7">
  <defs>
    <style>
      .cls-1 {
      fill: #00457e;
      }

      .cls-2 {
      fill: #007e49;
      }
    </style>
  </defs>
  <g id="Layer_3" data-name="Layer 3">
    <path class="cls-2"
      d="m164.31,47.48s-91.5,23.5-145.5,92.5c-38,51-14.06,90.21,33,98,157,26,197-47,197-47,0,0-137,44-171.74-12.74-9.63-21.87,1.74-63.26,87.24-130.76Z" />
  </g>
  <g id="Layer_2-2" data-name="Layer 2">
    <path class="cls-1"
      d="m226.31,43.48S24.31,152.48,103.31,226.48c0,0,55.29,49.41,160.5,29.5,73.6-13.92,145.22-118.85-14.37-140.65-1.91-.26-2.93-2.37-1.96-4.03,1.05-1.8,3.36-4.06,8.33-6.32,6.87-3.12,106.55-40.77,86-85-9.41-23.11-61.08-38.5-172,26,0,0,79.52-24.04,105.65-17.65,4.4,1.08,7.12,5.65,5.96,10.03-5.36,20.32-42.99,34-85.39,86.07-2.35,2.89-.48,7.21,3.23,7.5,143.23,10.96,59.73,127.88-28.45,118.05-17.88-1.99-33-15-31.74-39.14.07-27.24,10.74-78.86,87.24-167.36Z" />
  </g>
</svg>